<svg id="Layer_1" enable-background="new 0 0 511.231 511.231" height="512" viewBox="0 0 511.231 511.231" width="512" xmlns="http://www.w3.org/2000/svg"><g fill="#80b9ed"><path d="m466.923 124.261h-339.967c-9.612 0-17.061 8.429-15.878 17.969l21.472 173.159c1.09 8.792 9.131 15.039 17.936 13.898l266.803-34.602c5.882-.763 10.86-4.717 12.933-10.274l51.693-138.558c3.896-10.444-3.839-21.592-14.992-21.592z"/><path d="m185.253 421.503c-24.738 0-44.864 20.126-44.864 44.864 0 24.737 20.126 44.863 44.864 44.863s44.864-20.126 44.864-44.863c0-24.738-20.126-44.864-44.864-44.864z"/><path d="m339.697 421.503c-24.738 0-44.864 20.126-44.864 44.864 0 24.737 20.126 44.863 44.864 44.863s44.864-20.126 44.864-44.863c0-24.738-20.126-44.864-44.864-44.864z"/></g><path d="m481.914 145.854c3.897-10.445-3.838-21.593-14.991-21.593h-339.967c-9.612 0-17.061 8.429-15.878 17.969l15.678 126.435c39.006-5.938 84.786-19.941 136.007-48.137 70.227-38.657 141.586-36.495 199.484-21.956z" fill="#8bc4ff"/><path d="m126.956 124.261c-9.612 0-17.061 8.429-15.878 17.969l6.755 54.477c49.493-.465 100.644-7.112 128.824-28.887 12.692-9.808 27.157-25.187 42.203-43.558h-161.904z" fill="#a2d0f9"/><path d="m430.221 284.411 51.693-138.558c3.897-10.445-3.838-21.593-14.991-21.593h-328.033l-13.015-95.653c-.901-6.624-5.825-11.989-12.347-13.454l-65.723-14.762c-8.622-1.932-17.181 3.483-19.117 12.104-1.937 8.622 3.482 17.182 12.104 19.118l54.874 12.325 36.884 271.45c1.09 8.792 9.131 15.039 17.936 13.898l181.304-23.513 60.92 37.762c12.788 7.926 7.188 27.588-7.857 27.588h-234.354c-8.836 0-16 7.163-16 16s7.164 16 16 16h234.353c47.102 0 64.845-61.913 24.716-86.787l-27.55-17.077 35.27-4.574c5.883-.762 10.86-4.716 12.933-10.274zm-267.895 11.073-17.264-139.223h298.814l-40.266 107.931z" fill="#2e58ff"/><path d="m185.253 421.503c-24.738 0-44.864 20.126-44.864 44.864 0 24.737 20.126 44.863 44.864 44.863s44.864-20.126 44.864-44.863c0-24.738-20.126-44.864-44.864-44.864zm0 57.728c-7.093 0-12.864-5.771-12.864-12.863 0-7.094 5.771-12.864 12.864-12.864s12.864 5.771 12.864 12.864c0 7.092-5.771 12.863-12.864 12.863z" fill="#2e58ff"/><path d="m339.697 421.503c-24.738 0-44.864 20.126-44.864 44.864 0 24.737 20.126 44.863 44.864 44.863s44.864-20.126 44.864-44.863c0-24.738-20.126-44.864-44.864-44.864zm0 57.728c-7.093 0-12.864-5.771-12.864-12.863 0-7.094 5.771-12.864 12.864-12.864s12.864 5.771 12.864 12.864c0 7.092-5.77 12.863-12.864 12.863z" fill="#2e58ff"/></svg>