<?xml version="1.0" encoding="iso-8859-1"?>
<!-- Generator: Adobe Illustrator 19.0.0, SVG Export Plug-In . SVG Version: 6.00 Build 0)  -->
<svg version="1.1" id="Capa_1" xmlns="http://www.w3.org/2000/svg" xmlns:xlink="http://www.w3.org/1999/xlink" x="0px" y="0px"
	 viewBox="0 0 512.001 512.001" style="enable-background:new 0 0 512.001 512.001;" xml:space="preserve">
<linearGradient id="SVGID_1_" gradientUnits="userSpaceOnUse" x1="41.0006" y1="257.9995" x2="471.0004" y2="257.9995" gradientTransform="matrix(1 0 0 -1 0 514)">
	<stop  offset="0" style="stop-color:#80D8FF"/>
	<stop  offset="0.16" style="stop-color:#88D1FF"/>
	<stop  offset="0.413" style="stop-color:#9FBEFE"/>
	<stop  offset="0.725" style="stop-color:#C4A0FD"/>
	<stop  offset="1" style="stop-color:#EA80FC"/>
</linearGradient>
<path style="fill:url(#SVGID_1_);" d="M380.234,410.812v51.811c0,27.227-22.396,49.378-49.923,49.378H90.924
	C63.397,512,41.001,489.849,41.001,462.622V49.378C41.001,22.151,63.397,0,90.924,0h239.387c27.527,0,49.923,22.151,49.923,49.378
	v51.811c0,11.046-8.954,20-20,20s-20-8.954-20-20V49.378c0-5.171-4.451-9.378-9.923-9.378H90.924c-5.472,0-9.923,4.207-9.923,9.378
	v413.244c0,5.171,4.451,9.378,9.923,9.378h239.387c5.472,0,9.923-4.207,9.923-9.378v-51.811c0-11.046,8.954-20,20-20
	S380.234,399.766,380.234,410.812z M464.964,241.682L358.522,137.881c-7.908-7.713-20.571-7.554-28.281,0.355
	c-7.712,7.907-7.553,20.57,0.355,28.281L401.846,236H210.617c-11.046,0-20,8.954-20,20c0,11.046,8.954,20,20,20h191.229
	l-71.25,69.482c-7.908,7.711-8.067,20.374-0.355,28.281c7.709,7.907,20.373,8.07,28.281,0.355l106.442-103.801
	C473.062,262.436,472.964,249.469,464.964,241.682z"/>
<g>
</g>
<g>
</g>
<g>
</g>
<g>
</g>
<g>
</g>
<g>
</g>
<g>
</g>
<g>
</g>
<g>
</g>
<g>
</g>
<g>
</g>
<g>
</g>
<g>
</g>
<g>
</g>
<g>
</g>
</svg>
