<?xml version="1.0" encoding="iso-8859-1"?>
<!-- Generator: Adobe Illustrator 19.0.0, SVG Export Plug-In . SVG Version: 6.00 Build 0)  -->
<svg version="1.1" id="Capa_1" xmlns="http://www.w3.org/2000/svg" xmlns:xlink="http://www.w3.org/1999/xlink" x="0px" y="0px"
	 viewBox="0 0 447.188 447.188" style="enable-background:new 0 0 447.188 447.188;" xml:space="preserve">
<path style="fill:#EBF0F3;" d="M275.629,227.643c-15.758,7.736-31.622,15.238-47.769,22.156l38.158,63.37
	c17.011-5.278,33.604-11.681,50.152-18.199L275.629,227.643z"/>
<g>
	<path style="fill:#64798A;" d="M307.761,66.205c-38.962-64.687-123.005-85.542-187.692-46.58
		C55.382,58.587,34.528,142.63,73.489,207.317s123.005,85.542,187.692,46.58S346.723,130.892,307.761,66.205z M291.214,161.737
		c-13.799,55.508-69.994,89.413-125.565,75.614c-55.571-13.799-89.413-69.994-75.614-125.565
		c13.799-55.571,69.994-89.413,125.565-75.614C271.171,49.971,305.013,106.166,291.214,161.737z"/>
	<path style="fill:#64798A;" d="M375.112,441.775c-17.858,10.74-41.022,4.995-51.762-12.8l-74.282-122.193l64.5-38.837
		l74.344,122.131C398.651,407.871,392.907,431.036,375.112,441.775z"/>
</g>
<g style="opacity:0.33;">
	<path style="fill:#E1E6E9;" d="M291.214,161.737c-13.799,55.508-69.994,89.413-125.565,75.614
		c-55.571-13.799-89.413-69.994-75.614-125.565c13.799-55.571,69.994-89.413,125.565-75.614
		C271.171,49.971,305.013,106.166,291.214,161.737z"/>
</g>
<path style="fill:#FFFFFF;" d="M120.194,165.795c3.622,11.989,9.428,23.353,17.109,34.341c-11.364-7.18-20.418-18.232-26.224-30.907
	c-5.807-12.675-8.055-27.099-6.744-41.147c1.623-13.986,6.369-27.723,14.673-39.024c8.055-11.364,19.169-20.418,31.719-25.225
	c-9.74,9.241-17.732,19.231-23.477,30.345c-5.807,10.989-9.303,22.978-10.49,35.153
	C115.449,141.444,116.822,153.807,120.194,165.795z"/>
<g>
</g>
<g>
</g>
<g>
</g>
<g>
</g>
<g>
</g>
<g>
</g>
<g>
</g>
<g>
</g>
<g>
</g>
<g>
</g>
<g>
</g>
<g>
</g>
<g>
</g>
<g>
</g>
<g>
</g>
</svg>
