<svg height="512" viewBox="0 0 192 192" width="512" xmlns="http://www.w3.org/2000/svg" xmlns:xlink="http://www.w3.org/1999/xlink"><linearGradient id="New_Gradient_Swatch_1" gradientUnits="userSpaceOnUse" x1="20.474" x2="169.941" y1="171.799" y2="22.332"><stop offset="0" stop-color="#34cdfa"/><stop offset="1" stop-color="#e8d9f1"/></linearGradient><g id="_02-spoon_fork" data-name="02-spoon fork"><g id="Flat"><path d="m143.568 183.469-63.56-111.94a29.863 29.863 0 0 0 9.107-12.782c2.843-8.121 1.606-16.957-3.678-26.263a65.636 65.636 0 0 0 -22.064-22.572c-11.029-6.7-21.492-7.894-29.464-3.368-17.241 9.789-14.023 40.112-4.126 57.541 5.283 9.306 12.238 14.9 20.668 16.616a26.54 26.54 0 0 0 5.306.527 32.173 32.173 0 0 0 10.331-1.811l63.567 111.953z" fill="#ccf2fe"/><path d="m79.41 64.111a36 36 0 0 1 -17.653 5.117 26.54 26.54 0 0 1 -5.306-.527c-8.43-1.72-15.385-7.31-20.668-16.616-6.483-11.411-10.094-28.347-6.983-41.43-11.3 12.436-7.788 37.988.981 53.43 5.283 9.306 12.238 14.9 20.668 16.616a26.54 26.54 0 0 0 5.306.527 36 36 0 0 0 17.655-5.117c7.86-4.463 13.29-10.467 15.7-17.364a26.418 26.418 0 0 0 .9-3.232 38.917 38.917 0 0 1 -10.6 8.596z" fill="#99e6fd"/><path d="m108.528 121.758-17.118-30.148-10.62 13.7 17.118 30.148z" fill="#99e6fd"/><path d="m190.166 42.558-12.645-9.8-19.606 25.288-6.322-4.9 19.607-25.292-12.646-9.8-19.6 25.291-6.323-4.9 19.598-25.295-12.646-9.8-24.5 31.613-4.9 6.323a32.028 32.028 0 0 0 -.02 39.2l-79.043 101.958 12.646 9.8 79.039-101.962a32.07 32.07 0 0 0 37.954-9.788l4.9-6.322z" fill="url(#New_Gradient_Swatch_1)"/></g></g></svg>